<svg width="current" height="current" viewBox="0 0 32 32" fill="none" xmlns="http://www.w3.org/2000/svg">
<rect width="32" height="32" rx="16" fill="#F0FDF4"/>
<path d="M15.7177 21.8335C14.1621 21.7525 12.8496 21.1529 11.7802 20.0349C10.7107 18.9168 10.176 17.5719 10.176 16.0002C10.176 14.3798 10.7431 13.0025 11.8774 11.8682C13.0116 10.734 14.389 10.1668 16.0093 10.1668C17.5811 10.1668 18.926 10.7016 20.0441 11.771C21.1621 12.8404 21.7616 14.1529 21.8427 15.7085L19.801 15.1009C19.5904 14.2259 19.1366 13.5088 18.4399 12.9498C17.7431 12.3908 16.9329 12.1113 16.0093 12.1113C14.9399 12.1113 14.0244 12.4921 13.2628 13.2536C12.5012 14.0152 12.1204 14.9307 12.1204 16.0002C12.1204 16.9238 12.4 17.734 12.959 18.4307C13.518 19.1275 14.235 19.5812 15.11 19.7918L15.7177 21.8335ZM16.8843 25.6738C16.7385 25.7062 16.5927 25.7224 16.4468 25.7224C16.301 25.7224 16.1552 25.7224 16.0093 25.7224C14.6644 25.7224 13.4005 25.4672 12.2177 24.9568C11.0348 24.4463 10.0059 23.7536 9.13086 22.8786C8.25586 22.0036 7.56315 20.9747 7.05273 19.7918C6.54232 18.609 6.28711 17.3451 6.28711 16.0002C6.28711 14.6553 6.54232 13.3914 7.05273 12.2085C7.56315 11.0256 8.25586 9.99669 9.13086 9.12169C10.0059 8.24669 11.0348 7.55398 12.2177 7.04357C13.4005 6.53315 14.6644 6.27794 16.0093 6.27794C17.3542 6.27794 18.6181 6.53315 19.801 7.04357C20.9839 7.55398 22.0128 8.24669 22.8878 9.12169C23.7628 9.99669 24.4555 11.0256 24.9659 12.2085C25.4763 13.3914 25.7316 14.6553 25.7316 16.0002C25.7316 16.146 25.7316 16.2918 25.7316 16.4377C25.7316 16.5835 25.7154 16.7293 25.6829 16.8752L23.7871 16.2918V16.0002C23.7871 13.8289 23.0336 11.9897 21.5267 10.4828C20.0197 8.97586 18.1806 8.22239 16.0093 8.22239C13.838 8.22239 11.9989 8.97586 10.492 10.4828C8.98503 11.9897 8.23155 13.8289 8.23155 16.0002C8.23155 18.1715 8.98503 20.0106 10.492 21.5175C11.9989 23.0245 13.838 23.7779 16.0093 23.7779C16.0579 23.7779 16.1066 23.7779 16.1552 23.7779C16.2038 23.7779 16.2524 23.7779 16.301 23.7779L16.8843 25.6738ZM24.2975 26.2085L20.1413 22.0522L18.926 25.7224L16.0093 16.0002L25.7316 18.9168L22.0614 20.1321L26.2177 24.2884L24.2975 26.2085Z" fill="#10B981"/>
</svg>
