<svg width="current" height="current" viewBox="0 0 32 32" fill="none" xmlns="http://www.w3.org/2000/svg">
<rect width="32" height="32" rx="16" fill="#FFF7ED"/>
<path d="M15.1343 22.8055H16.8357V21.5902C17.6459 21.4444 18.3427 21.1284 18.926 20.6423C19.5093 20.1562 19.801 19.4351 19.801 18.4791C19.801 17.7986 19.6066 17.1747 19.2177 16.6076C18.8288 16.0405 18.051 15.5462 16.8843 15.1249C15.9121 14.8009 15.2397 14.5173 14.867 14.2743C14.4943 14.0312 14.3079 13.699 14.3079 13.2777C14.3079 12.8564 14.4578 12.5243 14.7576 12.2812C15.0574 12.0381 15.4908 11.9166 16.0579 11.9166C16.5765 11.9166 16.9816 12.0422 17.2732 12.2933C17.5649 12.5445 17.7755 12.8564 17.9052 13.2291L19.4607 12.5972C19.2825 12.03 18.9544 11.5358 18.4763 11.1145C17.9983 10.6932 17.4677 10.4583 16.8843 10.4097V9.19439H15.1829V10.4097C14.3728 10.5879 13.7408 10.9444 13.2871 11.4791C12.8334 12.0138 12.6066 12.6134 12.6066 13.2777C12.6066 14.0393 12.8294 14.655 13.275 15.1249C13.7206 15.5949 14.4214 15.9999 15.3774 16.3402C16.3982 16.7129 17.1071 17.0451 17.5041 17.3368C17.9011 17.6284 18.0996 18.0092 18.0996 18.4791C18.0996 19.0138 17.9092 19.4068 17.5284 19.6579C17.1476 19.9091 16.6899 20.0347 16.1552 20.0347C15.6204 20.0347 15.1465 19.8686 14.7333 19.5364C14.3201 19.2042 14.0163 18.706 13.8218 18.0416L12.2177 18.6736C12.4445 19.4513 12.7969 20.0792 13.275 20.5572C13.753 21.0352 14.3728 21.3634 15.1343 21.5416V22.8055ZM16.0093 25.7222C14.6644 25.7222 13.4005 25.467 12.2177 24.9565C11.0348 24.4461 10.0059 23.7534 9.13086 22.8784C8.25586 22.0034 7.56315 20.9745 7.05273 19.7916C6.54232 18.6087 6.28711 17.3449 6.28711 15.9999C6.28711 14.655 6.54232 13.3911 7.05273 12.2083C7.56315 11.0254 8.25586 9.99647 9.13086 9.12147C10.0059 8.24647 11.0348 7.55376 12.2177 7.04335C13.4005 6.53293 14.6644 6.27772 16.0093 6.27772C17.3542 6.27772 18.6181 6.53293 19.801 7.04335C20.9839 7.55376 22.0128 8.24647 22.8878 9.12147C23.7628 9.99647 24.4555 11.0254 24.9659 12.2083C25.4763 13.3911 25.7316 14.655 25.7316 15.9999C25.7316 17.3449 25.4763 18.6087 24.9659 19.7916C24.4555 20.9745 23.7628 22.0034 22.8878 22.8784C22.0128 23.7534 20.9839 24.4461 19.801 24.9565C18.6181 25.467 17.3542 25.7222 16.0093 25.7222ZM16.0093 23.7777C18.1806 23.7777 20.0197 23.0243 21.5267 21.5173C23.0336 20.0104 23.7871 18.1712 23.7871 15.9999C23.7871 13.8286 23.0336 11.9895 21.5267 10.4826C20.0197 8.97564 18.1806 8.22217 16.0093 8.22217C13.838 8.22217 11.9989 8.97564 10.492 10.4826C8.98503 11.9895 8.23155 13.8286 8.23155 15.9999C8.23155 18.1712 8.98503 20.0104 10.492 21.5173C11.9989 23.0243 13.838 23.7777 16.0093 23.7777Z" fill="#F59E0B"/>
</svg>
