<svg width="current" height="current" viewBox="0 0 32 32" fill="none" xmlns="http://www.w3.org/2000/svg">
<rect width="32" height="32" rx="16" fill="#DBEAFE"/>
<path d="M25.8792 15.5057C23.9962 11.9236 20.2684 9.5 16 9.5C11.7316 9.5 8.00276 11.9253 6.12081 15.5061C6.04138 15.6593 6 15.8285 6 16.0002C6 16.1718 6.04138 16.3411 6.12081 16.4943C8.0038 20.0764 11.7316 22.5 16 22.5C20.2684 22.5 23.9972 20.0747 25.8792 16.4939C25.9586 16.3407 26 16.1715 26 15.9998C26 15.8282 25.9586 15.6589 25.8792 15.5057ZM16 20.875C15.0111 20.875 14.0444 20.5891 13.2221 20.0534C12.3999 19.5177 11.759 18.7564 11.3806 17.8656C11.0022 16.9748 10.9031 15.9946 11.0961 15.0489C11.289 14.1033 11.7652 13.2346 12.4645 12.5529C13.1637 11.8711 14.0546 11.4068 15.0245 11.2187C15.9945 11.0306 16.9998 11.1271 17.9134 11.4961C18.8271 11.8651 19.6079 12.4899 20.1574 13.2916C20.7068 14.0933 21 15.0358 21 16C21.0003 16.6403 20.8712 17.2743 20.6201 17.866C20.3689 18.4576 20.0006 18.9951 19.5363 19.4478C19.0719 19.9006 18.5206 20.2597 17.9138 20.5045C17.307 20.7494 16.6567 20.8753 16 20.875ZM16 12.75C15.7025 12.7541 15.4069 12.7972 15.1212 12.8783C15.3567 13.1903 15.4697 13.5743 15.4397 13.9606C15.4097 14.3469 15.2388 14.7099 14.9578 14.9839C14.6769 15.2578 14.3045 15.4245 13.9083 15.4537C13.5121 15.4829 13.1183 15.3728 12.7983 15.1432C12.616 15.7978 12.6489 16.4916 12.8923 17.127C13.1357 17.7624 13.5773 18.3074 14.1551 18.6853C14.7328 19.0632 15.4175 19.2549 16.1128 19.2335C16.8082 19.2121 17.4791 18.9786 18.0312 18.5659C18.5833 18.1532 18.9888 17.5821 19.1906 16.933C19.3923 16.2839 19.3803 15.5894 19.156 14.9473C18.9318 14.3052 18.5066 13.7479 17.9405 13.3537C17.3744 12.9596 16.6957 12.7484 16 12.75Z" fill="#2463EB"/>
</svg>
