<svg width="current" height="current" viewBox="0 0 32 32" fill="none" xmlns="http://www.w3.org/2000/svg">
<rect width="32" height="32" rx="4" fill="current"/>
<path d="M15.7493 21C14.416 20.9306 13.291 20.4167 12.3743 19.4583C11.4577 18.5 10.9993 17.3472 10.9993 16C10.9993 14.6111 11.4855 13.4306 12.4577 12.4583C13.4299 11.4861 14.6105 11 15.9993 11C17.3466 11 18.4993 11.4583 19.4577 12.375C20.416 13.2917 20.9299 14.4167 20.9993 15.75L19.2493 15.2292C19.0688 14.4792 18.6799 13.8646 18.0827 13.3854C17.4855 12.9062 16.791 12.6667 15.9993 12.6667C15.0827 12.6667 14.298 12.9931 13.6452 13.6458C12.9924 14.2986 12.666 15.0833 12.666 16C12.666 16.7917 12.9056 17.4861 13.3848 18.0833C13.8639 18.6806 14.4785 19.0694 15.2285 19.25L15.7493 21ZM16.7493 24.2917C16.6243 24.3194 16.4993 24.3333 16.3743 24.3333C16.2493 24.3333 16.1243 24.3333 15.9993 24.3333C14.8466 24.3333 13.7632 24.1146 12.7493 23.6771C11.7355 23.2396 10.8535 22.6458 10.1035 21.8958C9.35352 21.1458 8.75977 20.2639 8.32227 19.25C7.88477 18.2361 7.66602 17.1528 7.66602 16C7.66602 14.8472 7.88477 13.7639 8.32227 12.75C8.75977 11.7361 9.35352 10.8542 10.1035 10.1042C10.8535 9.35417 11.7355 8.76042 12.7493 8.32292C13.7632 7.88542 14.8466 7.66667 15.9993 7.66667C17.1521 7.66667 18.2355 7.88542 19.2493 8.32292C20.2632 8.76042 21.1452 9.35417 21.8952 10.1042C22.6452 10.8542 23.2389 11.7361 23.6764 12.75C24.1139 13.7639 24.3327 14.8472 24.3327 16C24.3327 16.125 24.3327 16.25 24.3327 16.375C24.3327 16.5 24.3188 16.625 24.291 16.75L22.666 16.25V16C22.666 14.1389 22.0202 12.5625 20.7285 11.2708C19.4368 9.97917 17.8605 9.33333 15.9993 9.33333C14.1382 9.33333 12.5618 9.97917 11.2702 11.2708C9.97852 12.5625 9.33268 14.1389 9.33268 16C9.33268 17.8611 9.97852 19.4375 11.2702 20.7292C12.5618 22.0208 14.1382 22.6667 15.9993 22.6667C16.041 22.6667 16.0827 22.6667 16.1243 22.6667C16.166 22.6667 16.2077 22.6667 16.2493 22.6667L16.7493 24.2917ZM23.1035 24.75L19.541 21.1875L18.4993 24.3333L15.9993 16L24.3327 18.5L21.1868 19.5417L24.7493 23.1042L23.1035 24.75Z" fill="white"/>
</svg>
