<svg width="current" height="current" viewBox="0 0 20 24" fill="none" xmlns="http://www.w3.org/2000/svg">
<path d="M14.9994 12.8332V11.1665H18.3327V12.8332H14.9994ZM15.9994 18.6665L13.3327 16.6665L14.3327 15.3332L16.9994 17.3332L15.9994 18.6665ZM14.3327 8.6665L13.3327 7.33317L15.9994 5.33317L16.9994 6.6665L14.3327 8.6665ZM4.16602 17.8332V14.4998H3.33268C2.87435 14.4998 2.48199 14.3366 2.1556 14.0103C1.82921 13.6839 1.66602 13.2915 1.66602 12.8332V11.1665C1.66602 10.7082 1.82921 10.3158 2.1556 9.98942C2.48199 9.66303 2.87435 9.49984 3.33268 9.49984H6.66602L10.8327 6.99984V16.9998L6.66602 14.4998H5.83268V17.8332H4.16602ZM9.16602 14.0415V9.95817L7.12435 11.1665H3.33268V12.8332H7.12435L9.16602 14.0415ZM11.666 14.7915V9.20817C12.041 9.5415 12.3431 9.94775 12.5723 10.4269C12.8014 10.9061 12.916 11.4304 12.916 11.9998C12.916 12.5693 12.8014 13.0936 12.5723 13.5728C12.3431 14.0519 12.041 14.4582 11.666 14.7915Z" fill="currentColor"/>
</svg>
