<svg width="current" height="current" viewBox="0 0 25 28" fill="none" xmlns="http://www.w3.org/2000/svg">
<path d="M6.17687 15.9443C5.64214 15.9443 5.18439 15.7539 4.8036 15.3732C4.42282 14.9924 4.23242 14.5346 4.23242 13.9999C4.23242 13.4652 4.42282 13.0074 4.8036 12.6266C5.18439 12.2458 5.64214 12.0554 6.17687 12.0554C6.71159 12.0554 7.16934 12.2458 7.55013 12.6266C7.93092 13.0074 8.12131 13.4652 8.12131 13.9999C8.12131 14.5346 7.93092 14.9924 7.55013 15.3732C7.16934 15.7539 6.71159 15.9443 6.17687 15.9443ZM12.0102 15.9443C11.4755 15.9443 11.0177 15.7539 10.6369 15.3732C10.2561 14.9924 10.0658 14.5346 10.0658 13.9999C10.0658 13.4652 10.2561 13.0074 10.6369 12.6266C11.0177 12.2458 11.4755 12.0554 12.0102 12.0554C12.5449 12.0554 13.0027 12.2458 13.3835 12.6266C13.7643 13.0074 13.9546 13.4652 13.9546 13.9999C13.9546 14.5346 13.7643 14.9924 13.3835 15.3732C13.0027 15.7539 12.5449 15.9443 12.0102 15.9443ZM17.8435 15.9443C17.3088 15.9443 16.8511 15.7539 16.4703 15.3732C16.0895 14.9924 15.8991 14.5346 15.8991 13.9999C15.8991 13.4652 16.0895 13.0074 16.4703 12.6266C16.8511 12.2458 17.3088 12.0554 17.8435 12.0554C18.3783 12.0554 18.836 12.2458 19.2168 12.6266C19.5976 13.0074 19.788 13.4652 19.788 13.9999C19.788 14.5346 19.5976 14.9924 19.2168 15.3732C18.836 15.7539 18.3783 15.9443 17.8435 15.9443Z" fill="currentColor"/>
</svg>
