<svg width="current" height="current" viewBox="0 0 32 32" fill="none" xmlns="http://www.w3.org/2000/svg">
<rect width="32" height="32" rx="16" fill="#F3E8FF"/>
<path d="M12.5 15.0625C14.4344 15.0625 16 13.5947 16 11.7812C16 9.96777 14.4344 8.5 12.5 8.5C10.5656 8.5 9 9.96777 9 11.7812C9 13.5947 10.5656 15.0625 12.5 15.0625ZM12.5 10.375C13.3281 10.375 14 11.0049 14 11.7812C14 12.5576 13.3281 13.1875 12.5 13.1875C11.6719 13.1875 11 12.5576 11 11.7812C11 11.0049 11.6719 10.375 12.5 10.375ZM19.5 16.9375C17.5656 16.9375 16 18.4053 16 20.2188C16 22.0322 17.5656 23.5 19.5 23.5C21.4344 23.5 23 22.0322 23 20.2188C23 18.4053 21.4344 16.9375 19.5 16.9375ZM19.5 21.625C18.6719 21.625 18 20.9951 18 20.2188C18 19.4424 18.6719 18.8125 19.5 18.8125C20.3281 18.8125 21 19.4424 21 20.2188C21 20.9951 20.3281 21.625 19.5 21.625ZM21.2594 8.50586L22.2469 8.50293C22.8531 8.5 23.2125 9.1416 22.8625 9.61035L11.4188 23.1953C11.3498 23.2876 11.2581 23.3629 11.1515 23.4149C11.0448 23.4669 10.9264 23.4941 10.8062 23.4941L9.7625 23.4971C9.15312 23.4971 8.79688 22.8555 9.14687 22.3896L20.6469 8.80469C20.7875 8.61719 21.0156 8.50586 21.2594 8.50586Z" fill="#893EDB"/>
</svg>
