<svg width="current" height="current" viewBox="0 0 20 24" fill="none" xmlns="http://www.w3.org/2000/svg">
<path d="M4.16667 17.8333V6.16667C4.16667 6.16667 4.16667 6.47569 4.16667 7.09375C4.16667 7.71181 4.16667 8.51389 4.16667 9.5V14.5C4.16667 15.4861 4.16667 16.2882 4.16667 16.9062C4.16667 17.5243 4.16667 17.8333 4.16667 17.8333ZM4.16667 19.5C3.70833 19.5 3.31597 19.3368 2.98958 19.0104C2.66319 18.684 2.5 18.2917 2.5 17.8333V6.16667C2.5 5.70833 2.66319 5.31597 2.98958 4.98958C3.31597 4.66319 3.70833 4.5 4.16667 4.5H15.8333C16.2917 4.5 16.684 4.66319 17.0104 4.98958C17.3368 5.31597 17.5 5.70833 17.5 6.16667V8.25H15.8333V6.16667H4.16667V17.8333H15.8333V15.75H17.5V17.8333C17.5 18.2917 17.3368 18.684 17.0104 19.0104C16.684 19.3368 16.2917 19.5 15.8333 19.5H4.16667ZM10.8333 16.1667C10.375 16.1667 9.98264 16.0035 9.65625 15.6771C9.32986 15.3507 9.16667 14.9583 9.16667 14.5V9.5C9.16667 9.04167 9.32986 8.64931 9.65625 8.32292C9.98264 7.99653 10.375 7.83333 10.8333 7.83333H16.6667C17.125 7.83333 17.5174 7.99653 17.8438 8.32292C18.1701 8.64931 18.3333 9.04167 18.3333 9.5V14.5C18.3333 14.9583 18.1701 15.3507 17.8438 15.6771C17.5174 16.0035 17.125 16.1667 16.6667 16.1667H10.8333ZM16.6667 14.5V9.5H10.8333V14.5H16.6667ZM13.3333 13.25C13.6806 13.25 13.9757 13.1285 14.2188 12.8854C14.4618 12.6424 14.5833 12.3472 14.5833 12C14.5833 11.6528 14.4618 11.3576 14.2188 11.1146C13.9757 10.8715 13.6806 10.75 13.3333 10.75C12.9861 10.75 12.691 10.8715 12.4479 11.1146C12.2049 11.3576 12.0833 11.6528 12.0833 12C12.0833 12.3472 12.2049 12.6424 12.4479 12.8854C12.691 13.1285 12.9861 13.25 13.3333 13.25Z" fill="current"/>
</svg>
