<svg viewBox="0 0 25 25" fill="none" xmlns="http://www.w3.org/2000/svg">
<path d="M7.69141 13.2812H9.49609L8.59375 10.6826L7.69141 13.2812ZM17.1875 12.5C16.5415 12.5 16.0156 13.0259 16.0156 13.6719C16.0156 14.3179 16.5415 14.8438 17.1875 14.8438C17.8335 14.8438 18.3594 14.3179 18.3594 13.6719C18.3594 13.0259 17.8335 12.5 17.1875 12.5ZM22.6562 3.125H2.34375C1.0498 3.125 0 4.1748 0 5.46875V19.5312C0 20.8252 1.0498 21.875 2.34375 21.875H22.6562C23.9502 21.875 25 20.8252 25 19.5312V5.46875C25 4.1748 23.9502 3.125 22.6562 3.125ZM12.2354 17.1875H11.4082C11.0757 17.1875 10.7793 16.9766 10.6699 16.6626L10.3101 15.625H6.87793L6.51758 16.6626C6.46431 16.816 6.36459 16.9489 6.23228 17.043C6.09997 17.137 5.94164 17.1876 5.7793 17.1875H4.95215C4.41455 17.1875 4.0376 16.6577 4.21387 16.1499L6.83594 8.59961C6.91582 8.36968 7.06534 8.17034 7.26371 8.02929C7.46208 7.88823 7.69946 7.81246 7.94287 7.8125H9.24463C9.48811 7.81246 9.72555 7.88829 9.92393 8.02944C10.1223 8.17059 10.2718 8.37006 10.3516 8.6001L12.9731 16.1499C13.1494 16.6577 12.7725 17.1875 12.2354 17.1875ZM20.7031 16.4062C20.7031 16.8379 20.3535 17.1875 19.9219 17.1875H19.1406C18.9038 17.1875 18.6992 17.0767 18.5557 16.9102C18.1348 17.0889 17.6724 17.1875 17.1875 17.1875C15.249 17.1875 13.6719 15.6104 13.6719 13.6719C13.6719 11.7334 15.249 10.1562 17.1875 10.1562C17.6006 10.1562 17.9912 10.2407 18.3594 10.3721V8.59375C18.3594 8.16211 18.709 7.8125 19.1406 7.8125H19.9219C20.3535 7.8125 20.7031 8.16211 20.7031 8.59375V16.4062Z" fill="currentColor"/>
</svg>
