<svg viewBox="0 0 20 24" fill="none" xmlns="http://www.w3.org/2000/svg">
<path d="M9.75033 17C8.41699 16.9306 7.29199 16.4167 6.37533 15.4583C5.45866 14.5 5.00033 13.3472 5.00033 12C5.00033 10.6111 5.48644 9.43056 6.45866 8.45833C7.43088 7.48611 8.61144 7 10.0003 7C11.3475 7 12.5003 7.45833 13.4587 8.375C14.417 9.29167 14.9309 10.4167 15.0003 11.75L13.2503 11.2292C13.0698 10.4792 12.6809 9.86458 12.0837 9.38542C11.4864 8.90625 10.792 8.66667 10.0003 8.66667C9.08366 8.66667 8.29894 8.99306 7.64616 9.64583C6.99338 10.2986 6.66699 11.0833 6.66699 12C6.66699 12.7917 6.90658 13.4861 7.38574 14.0833C7.86491 14.6806 8.47949 15.0694 9.22949 15.25L9.75033 17ZM10.7503 20.2917C10.6253 20.3194 10.5003 20.3333 10.3753 20.3333C10.2503 20.3333 10.1253 20.3333 10.0003 20.3333C8.84755 20.3333 7.76421 20.1146 6.75033 19.6771C5.73644 19.2396 4.85449 18.6458 4.10449 17.8958C3.35449 17.1458 2.76074 16.2639 2.32324 15.25C1.88574 14.2361 1.66699 13.1528 1.66699 12C1.66699 10.8472 1.88574 9.76389 2.32324 8.75C2.76074 7.73611 3.35449 6.85417 4.10449 6.10417C4.85449 5.35417 5.73644 4.76042 6.75033 4.32292C7.76421 3.88542 8.84755 3.66667 10.0003 3.66667C11.1531 3.66667 12.2364 3.88542 13.2503 4.32292C14.2642 4.76042 15.1462 5.35417 15.8962 6.10417C16.6462 6.85417 17.2399 7.73611 17.6774 8.75C18.1149 9.76389 18.3337 10.8472 18.3337 12C18.3337 12.125 18.3337 12.25 18.3337 12.375C18.3337 12.5 18.3198 12.625 18.292 12.75L16.667 12.25V12C16.667 10.1389 16.0212 8.5625 14.7295 7.27083C13.4378 5.97917 11.8614 5.33333 10.0003 5.33333C8.13921 5.33333 6.56283 5.97917 5.27116 7.27083C3.97949 8.5625 3.33366 10.1389 3.33366 12C3.33366 13.8611 3.97949 15.4375 5.27116 16.7292C6.56283 18.0208 8.13921 18.6667 10.0003 18.6667C10.042 18.6667 10.0837 18.6667 10.1253 18.6667C10.167 18.6667 10.2087 18.6667 10.2503 18.6667L10.7503 20.2917ZM17.1045 20.75L13.542 17.1875L12.5003 20.3333L10.0003 12L18.3337 14.5L15.1878 15.5417L18.7503 19.1042L17.1045 20.75Z" fill="currentColor"/>
</svg>
