<svg viewBox="0 0 20 20" fill="none" xmlns="http://www.w3.org/2000/svg">
<g clip-path="url(#clip0_490_133)">
<path fill-rule="evenodd" clip-rule="evenodd" d="M16.0672 15.1828C16.3114 15.427 16.3114 15.823 16.0672 16.0672C15.823 16.3114 15.427 16.3114 15.1828 16.0672L10 10.8836L4.81719 16.0672C4.57297 16.3114 4.17703 16.3114 3.93281 16.0672C3.6886 15.823 3.6886 15.427 3.93281 15.1828L9.11641 10L3.93281 4.81719C3.6886 4.57297 3.6886 4.17703 3.93281 3.93281C4.17703 3.6886 4.57297 3.6886 4.81719 3.93281L10 9.11641L15.1828 3.93281C15.427 3.6886 15.823 3.6886 16.0672 3.93281C16.3114 4.17703 16.3114 4.57297 16.0672 4.81719L10.8836 10L16.0672 15.1828Z" fill="currentColor"/>
</g>
<defs>
<clipPath id="clip0_490_133">
<rect width="20" height="20" fill="white"/>
</clipPath>
</defs>
</svg>
