<svg viewBox="0 0 18 22" fill="none" xmlns="http://www.w3.org/2000/svg">
<path d="M6.75 15.5C6.3375 15.5 5.98438 15.3531 5.69063 15.0594C5.39688 14.7656 5.25 14.4125 5.25 14V5C5.25 4.5875 5.39688 4.23437 5.69063 3.94062C5.98438 3.64687 6.3375 3.5 6.75 3.5H13.5C13.9125 3.5 14.2656 3.64687 14.5594 3.94062C14.8531 4.23437 15 4.5875 15 5V14C15 14.4125 14.8531 14.7656 14.5594 15.0594C14.2656 15.3531 13.9125 15.5 13.5 15.5H6.75ZM6.75 14H13.5V5H6.75V14ZM3.75 18.5C3.3375 18.5 2.98438 18.3531 2.69063 18.0594C2.39687 17.7656 2.25 17.4125 2.25 17V6.5H3.75V17H12V18.5H3.75Z" fill="currentColor"/>
</svg>
