<svg viewBox="0 0 20 24" fill="none" xmlns="http://www.w3.org/2000/svg">
<path d="M11.6668 20.3335V17.771L16.271 13.1877C16.396 13.0627 16.5349 12.9724 16.6877 12.9168C16.8404 12.8613 16.9932 12.8335 17.146 12.8335C17.3127 12.8335 17.4724 12.8647 17.6252 12.9272C17.7779 12.9897 17.9168 13.0835 18.0418 13.2085L18.8127 13.9793C18.9238 14.1043 19.0106 14.2432 19.0731 14.396C19.1356 14.5488 19.1668 14.7016 19.1668 14.8543C19.1668 15.0071 19.1391 15.1634 19.0835 15.3231C19.0279 15.4828 18.9377 15.6252 18.8127 15.7502L14.2293 20.3335H11.6668ZM12.9168 19.0835H13.7085L16.2293 16.5418L15.8543 16.146L15.4585 15.771L12.9168 18.2918V19.0835ZM5.00016 20.3335C4.54183 20.3335 4.14947 20.1703 3.82308 19.8439C3.49669 19.5175 3.3335 19.1252 3.3335 18.6668V5.33349C3.3335 4.87516 3.49669 4.4828 3.82308 4.15641C4.14947 3.83002 4.54183 3.66683 5.00016 3.66683H11.6668L16.6668 8.66683V11.1668H15.0002V9.50016H10.8335V5.33349H5.00016V18.6668H10.0002V20.3335H5.00016ZM15.8543 16.146L15.4585 15.771L16.2293 16.5418L15.8543 16.146Z" fill="currentColor"/>
</svg>
