<svg viewBox="0 0 223 128" fill="none" xmlns="http://www.w3.org/2000/svg">
<rect x="1" y="1" width="221" height="126" rx="7" fill="white"/>
<rect x="1" y="1" width="221" height="126" rx="7" stroke="currentColor" stroke-width="2" stroke-dasharray="6 4"/>
<path d="M101 77.5C100.175 77.5 99.4688 77.2063 98.8813 76.6187C98.2937 76.0312 98 75.325 98 74.5V53.5C98 52.675 98.2937 51.9687 98.8813 51.3812C99.4688 50.7937 100.175 50.5 101 50.5H122C122.825 50.5 123.531 50.7937 124.119 51.3812C124.706 51.9687 125 52.675 125 53.5V74.5C125 75.325 124.706 76.0312 124.119 76.6187C123.531 77.2063 122.825 77.5 122 77.5H101ZM101 74.5H122V53.5H101V74.5ZM102.5 71.5H120.5L114.875 64L110.375 70L107 65.5L102.5 71.5Z" fill="#D1D5DB"/>
</svg>
