<svg viewBox="0 0 25 28" fill="none" xmlns="http://www.w3.org/2000/svg">
<path d="M11.0376 18.8611H12.982V13.0277H11.0376V18.8611ZM12.0098 11.0833C12.2853 11.0833 12.5162 10.9901 12.7025 10.8038C12.8889 10.6174 12.982 10.3865 12.982 10.1111C12.982 9.83559 12.8889 9.60469 12.7025 9.41835C12.5162 9.23201 12.2853 9.13883 12.0098 9.13883C11.7344 9.13883 11.5035 9.23201 11.3171 9.41835C11.1308 9.60469 11.0376 9.83559 11.0376 10.1111C11.0376 10.3865 11.1308 10.6174 11.3171 10.8038C11.5035 10.9901 11.7344 11.0833 12.0098 11.0833ZM12.0098 23.7222C10.6649 23.7222 9.40102 23.467 8.21815 22.9565C7.03528 22.4461 6.00635 21.7534 5.13135 20.8784C4.25635 20.0034 3.56364 18.9745 3.05322 17.7916C2.54281 16.6087 2.2876 15.3449 2.2876 13.9999C2.2876 12.655 2.54281 11.3911 3.05322 10.2083C3.56364 9.02541 4.25635 7.99647 5.13135 7.12147C6.00635 6.24647 7.03528 5.55376 8.21815 5.04335C9.40102 4.53293 10.6649 4.27772 12.0098 4.27772C13.3547 4.27772 14.6186 4.53293 15.8015 5.04335C16.9844 5.55376 18.0133 6.24647 18.8883 7.12147C19.7633 7.99647 20.456 9.02541 20.9664 10.2083C21.4768 11.3911 21.732 12.655 21.732 13.9999C21.732 15.3449 21.4768 16.6087 20.9664 17.7916C20.456 18.9745 19.7633 20.0034 18.8883 20.8784C18.0133 21.7534 16.9844 22.4461 15.8015 22.9565C14.6186 23.467 13.3547 23.7222 12.0098 23.7222ZM12.0098 21.7777C14.1811 21.7777 16.0202 21.0243 17.5272 19.5173C19.0341 18.0104 19.7876 16.1712 19.7876 13.9999C19.7876 11.8286 19.0341 9.98953 17.5272 8.48258C16.0202 6.97564 14.1811 6.22217 12.0098 6.22217C9.83852 6.22217 7.9994 6.97564 6.49246 8.48258C4.98551 9.98953 4.23204 11.8286 4.23204 13.9999C4.23204 16.1712 4.98551 18.0104 6.49246 19.5173C7.9994 21.0243 9.83852 21.7777 12.0098 21.7777Z" fill="currentColor"/>
</svg>
