<svg viewBox="0 0 25 25" fill="none" xmlns="http://www.w3.org/2000/svg">
<path d="M2.18897 17.1875H14.9985C15.0808 17.1876 15.1623 17.1714 15.2383 17.1399C15.3144 17.1085 15.3835 17.0623 15.4417 17.0042C15.4998 16.946 15.546 16.8769 15.5774 16.8008C15.6089 16.7248 15.6251 16.6433 15.625 16.561V14.689C15.6251 14.6067 15.6089 14.5252 15.5774 14.4492C15.546 14.3731 15.4998 14.304 15.4417 14.2458C15.3835 14.1877 15.3144 14.1415 15.2383 14.1101C15.1623 14.0786 15.0808 14.0624 14.9985 14.0625H2.18897C2.10668 14.0624 2.02519 14.0786 1.94915 14.1101C1.87312 14.1415 1.80403 14.1877 1.74584 14.2458C1.68766 14.304 1.64152 14.3731 1.61006 14.4492C1.5786 14.5252 1.56244 14.6067 1.5625 14.689V16.561C1.56244 16.6433 1.5786 16.7248 1.61006 16.8008C1.64152 16.8769 1.68766 16.946 1.74584 17.0042C1.80403 17.0623 1.87312 17.1085 1.94915 17.1399C2.02519 17.1714 2.10668 17.1876 2.18897 17.1875ZM2.18897 4.6875H14.9985C15.0808 4.68756 15.1623 4.6714 15.2383 4.63994C15.3144 4.60848 15.3835 4.56234 15.4417 4.50416C15.4998 4.44597 15.546 4.37688 15.5774 4.30085C15.6089 4.22481 15.6251 4.14332 15.625 4.06104V2.18897C15.6251 2.10668 15.6089 2.02519 15.5774 1.94915C15.546 1.87312 15.4998 1.80403 15.4417 1.74584C15.3835 1.68766 15.3144 1.64152 15.2383 1.61006C15.1623 1.5786 15.0808 1.56244 14.9985 1.5625H2.18897C2.10668 1.56244 2.02519 1.5786 1.94915 1.61006C1.87312 1.64152 1.80403 1.68766 1.74584 1.74584C1.68766 1.80403 1.64152 1.87312 1.61006 1.94915C1.5786 2.02519 1.56244 2.10668 1.5625 2.18897V4.06104C1.56244 4.14332 1.5786 4.22481 1.61006 4.30085C1.64152 4.37688 1.68766 4.44597 1.74584 4.50416C1.80403 4.56234 1.87312 4.60848 1.94915 4.63994C2.02519 4.6714 2.10668 4.68756 2.18897 4.6875ZM22.6562 7.8125H2.34375C2.13655 7.8125 1.93784 7.89481 1.79132 8.04132C1.64481 8.18784 1.5625 8.38655 1.5625 8.59375V10.1562C1.5625 10.3635 1.64481 10.5622 1.79132 10.7087C1.93784 10.8552 2.13655 10.9375 2.34375 10.9375H22.6562C22.8635 10.9375 23.0622 10.8552 23.2087 10.7087C23.3552 10.5622 23.4375 10.3635 23.4375 10.1562V8.59375C23.4375 8.38655 23.3552 8.18784 23.2087 8.04132C23.0622 7.89481 22.8635 7.8125 22.6562 7.8125ZM22.6562 20.3125H2.34375C2.13655 20.3125 1.93784 20.3948 1.79132 20.5413C1.64481 20.6878 1.5625 20.8865 1.5625 21.0938V22.6562C1.5625 22.8635 1.64481 23.0622 1.79132 23.2087C1.93784 23.3552 2.13655 23.4375 2.34375 23.4375H22.6562C22.8635 23.4375 23.0622 23.3552 23.2087 23.2087C23.3552 23.0622 23.4375 22.8635 23.4375 22.6562V21.0938C23.4375 20.8865 23.3552 20.6878 23.2087 20.5413C23.0622 20.3948 22.8635 20.3125 22.6562 20.3125Z" fill="currentColor"/>
</svg>
