<svg viewBox="0 0 18 22" fill="none" xmlns="http://www.w3.org/2000/svg">
<path d="M8.25 14.75H5.25C4.2125 14.75 3.32813 14.3844 2.59688 13.6531C1.86563 12.9219 1.5 12.0375 1.5 11C1.5 9.9625 1.86563 9.07812 2.59688 8.34687C3.32813 7.61562 4.2125 7.25 5.25 7.25H8.25V8.75H5.25C4.625 8.75 4.09375 8.96875 3.65625 9.40625C3.21875 9.84375 3 10.375 3 11C3 11.625 3.21875 12.1562 3.65625 12.5938C4.09375 13.0312 4.625 13.25 5.25 13.25H8.25V14.75ZM6 11.75V10.25H12V11.75H6ZM9.75 14.75V13.25H12.75C13.375 13.25 13.9063 13.0312 14.3438 12.5938C14.7813 12.1562 15 11.625 15 11C15 10.375 14.7813 9.84375 14.3438 9.40625C13.9063 8.96875 13.375 8.75 12.75 8.75H9.75V7.25H12.75C13.7875 7.25 14.6719 7.61562 15.4031 8.34687C16.1344 9.07812 16.5 9.9625 16.5 11C16.5 12.0375 16.1344 12.9219 15.4031 13.6531C14.6719 14.3844 13.7875 14.75 12.75 14.75H9.75Z" fill="currentColor"/>
</svg>
