<svg viewBox="0 0 18 22" fill="none" xmlns="http://www.w3.org/2000/svg">
<path d="M3.75 16.25H4.81875L12.15 8.91875L11.0813 7.85L3.75 15.1812V16.25ZM2.25 17.75V14.5625L12.15 4.68125C12.3 4.54375 12.4656 4.4375 12.6469 4.3625C12.8281 4.2875 13.0188 4.25 13.2188 4.25C13.4188 4.25 13.6125 4.2875 13.8 4.3625C13.9875 4.4375 14.15 4.55 14.2875 4.7L15.3188 5.75C15.4688 5.8875 15.5781 6.05 15.6469 6.2375C15.7156 6.425 15.75 6.6125 15.75 6.8C15.75 7 15.7156 7.19062 15.6469 7.37187C15.5781 7.55312 15.4688 7.71875 15.3188 7.86875L5.4375 17.75H2.25ZM11.6063 8.39375L11.0813 7.85L12.15 8.91875L11.6063 8.39375Z" fill="currentColor"/>
</svg>
