<svg viewBox="0 0 14 14" fill="none" xmlns="http://www.w3.org/2000/svg">
<path d="M8.75 5.82422C8.75 5.52344 9.02344 5.25 9.32422 5.25C9.65234 5.25 9.92578 5.52344 9.92578 5.82422C9.92578 6.15234 9.65234 6.42578 9.32422 6.42578C9.02344 6.42578 8.75 6.15234 8.75 5.82422ZM4.67578 5.25H7.57422V4.07422H4.67578V5.25ZM12.8242 4.375V8.44922L11.1836 8.99609L10.1992 12.25H7V11.0742H5.82422V12.25H2.625C2.625 12.25 1.17578 7.32812 1.17578 5.55078C1.17578 3.77344 2.59766 2.32422 4.375 2.32422H7.30078C7.82031 1.64062 8.66797 1.17578 9.625 1.17578C10.1172 1.17578 10.5 1.55859 10.5 2.05078C10.5 2.16016 10.4727 2.26953 10.418 2.37891C10.3359 2.57031 10.2812 2.81641 10.2539 3.0625L11.5664 4.375H12.8242ZM11.6758 5.55078H11.0742L9.05078 3.5C9.05078 3.11719 9.10547 2.73438 9.1875 2.37891C8.64062 2.54297 8.17578 2.95312 7.98438 3.5H4.375C3.25391 3.5 2.32422 4.40234 2.32422 5.55078C2.32422 6.64453 3.03516 9.43359 3.5 11.0742H4.67578V9.92578H8.17578V11.0742H9.35156L10.2539 8.06641L11.6758 7.60156V5.55078Z" fill="currentColor"/>
</svg>
