<svg viewBox="0 0 20 24" fill="none" xmlns="http://www.w3.org/2000/svg">
<path d="M7.70833 20.3335L7.375 17.6668C7.19444 17.5974 7.02431 17.5141 6.86458 17.4168C6.70486 17.3196 6.54861 17.2154 6.39583 17.1043L3.91667 18.146L1.625 14.1877L3.77083 12.5627C3.75694 12.4654 3.75 12.3717 3.75 12.2814C3.75 12.1911 3.75 12.0974 3.75 12.0002C3.75 11.9029 3.75 11.8092 3.75 11.7189C3.75 11.6286 3.75694 11.5349 3.77083 11.4377L1.625 9.81266L3.91667 5.85433L6.39583 6.89599C6.54861 6.78488 6.70833 6.68072 6.875 6.58349C7.04167 6.48627 7.20833 6.40294 7.375 6.33349L7.70833 3.66683H12.2917L12.625 6.33349C12.8056 6.40294 12.9757 6.48627 13.1354 6.58349C13.2951 6.68072 13.4514 6.78488 13.6042 6.89599L16.0833 5.85433L18.375 9.81266L16.2292 11.4377C16.2431 11.5349 16.25 11.6286 16.25 11.7189C16.25 11.8092 16.25 11.9029 16.25 12.0002C16.25 12.0974 16.25 12.1911 16.25 12.2814C16.25 12.3717 16.2361 12.4654 16.2083 12.5627L18.3542 14.1877L16.0625 18.146L13.6042 17.1043C13.4514 17.2154 13.2917 17.3196 13.125 17.4168C12.9583 17.5141 12.7917 17.5974 12.625 17.6668L12.2917 20.3335H7.70833ZM9.16667 18.6668H10.8125L11.1042 16.4585C11.5347 16.3474 11.934 16.1842 12.3021 15.9689C12.6701 15.7536 13.0069 15.4932 13.3125 15.1877L15.375 16.0418L16.1875 14.6252L14.3958 13.271C14.4653 13.0766 14.5139 12.8717 14.5417 12.6564C14.5694 12.4411 14.5833 12.2224 14.5833 12.0002C14.5833 11.7779 14.5694 11.5592 14.5417 11.3439C14.5139 11.1286 14.4653 10.9238 14.3958 10.7293L16.1875 9.37516L15.375 7.95849L13.3125 8.8335C13.0069 8.51405 12.6701 8.24669 12.3021 8.03141C11.934 7.81613 11.5347 7.65294 11.1042 7.54183L10.8333 5.33349H9.1875L8.89583 7.54183C8.46528 7.65294 8.06597 7.81613 7.69792 8.03141C7.32986 8.24669 6.99306 8.50711 6.6875 8.81266L4.625 7.95849L3.8125 9.37516L5.60417 10.7085C5.53472 10.9168 5.48611 11.1252 5.45833 11.3335C5.43056 11.5418 5.41667 11.7641 5.41667 12.0002C5.41667 12.2224 5.43056 12.4377 5.45833 12.646C5.48611 12.8543 5.53472 13.0627 5.60417 13.271L3.8125 14.6252L4.625 16.0418L6.6875 15.1668C6.99306 15.4863 7.32986 15.7536 7.69792 15.9689C8.06597 16.1842 8.46528 16.3474 8.89583 16.4585L9.16667 18.6668ZM10.0417 14.9168C10.8472 14.9168 11.5347 14.6321 12.1042 14.0627C12.6736 13.4932 12.9583 12.8057 12.9583 12.0002C12.9583 11.1946 12.6736 10.5071 12.1042 9.93766C11.5347 9.36822 10.8472 9.0835 10.0417 9.0835C9.22222 9.0835 8.53125 9.36822 7.96875 9.93766C7.40625 10.5071 7.125 11.1946 7.125 12.0002C7.125 12.8057 7.40625 13.4932 7.96875 14.0627C8.53125 14.6321 9.22222 14.9168 10.0417 14.9168Z" fill="currentColor"/>
</svg>
