<svg viewBox="0 0 20 24" fill="none" xmlns="http://www.w3.org/2000/svg">
<path d="M3.33317 18.6665C2.87484 18.6665 2.48248 18.5033 2.15609 18.1769C1.8297 17.8505 1.6665 17.4582 1.6665 16.9998V6.99984C1.6665 6.5415 1.8297 6.14914 2.15609 5.82275C2.48248 5.49636 2.87484 5.33317 3.33317 5.33317H16.6665C17.1248 5.33317 17.5172 5.49636 17.8436 5.82275C18.17 6.14914 18.3332 6.5415 18.3332 6.99984V16.9998C18.3332 17.4582 18.17 17.8505 17.8436 18.1769C17.5172 18.5033 17.1248 18.6665 16.6665 18.6665H3.33317ZM3.33317 16.9998H16.6665V8.6665H3.33317V16.9998ZM6.24984 16.1665L5.08317 14.9998L7.229 12.8332L5.06234 10.6665L6.24984 9.49984L9.58317 12.8332L6.24984 16.1665ZM9.99984 16.1665V14.4998H14.9998V16.1665H9.99984Z" fill="currentColor"/>
</svg>
