<svg width="16" height="16" viewBox="0 0 16 16" fill="none" xmlns="http://www.w3.org/2000/svg">
<path d="M10 3.33333L14.2 7.53333C14.3492 7.68198 14.4675 7.85861 14.5483 8.05309C14.629 8.24757 14.6706 8.45609 14.6706 8.66667C14.6706 8.87725 14.629 9.08576 14.5483 9.28024C14.4675 9.47473 14.3492 9.65136 14.2 9.8L11.3333 12.6667" stroke="#3C83F6" stroke-width="1.33333" stroke-linecap="round" stroke-linejoin="round"/>
<path d="M6.39067 3.724C6.14068 3.47393 5.80159 3.33341 5.448 3.33333H2C1.82319 3.33333 1.65362 3.40357 1.52859 3.5286C1.40357 3.65362 1.33333 3.82319 1.33333 4V7.448C1.33341 7.80159 1.47393 8.14068 1.724 8.39067L5.52667 12.1933C5.82967 12.4944 6.2395 12.6634 6.66667 12.6634C7.09383 12.6634 7.50366 12.4944 7.80667 12.1933L10.1933 9.80667C10.4944 9.50366 10.6634 9.09384 10.6634 8.66667C10.6634 8.2395 10.4944 7.82968 10.1933 7.52667L6.39067 3.724Z" stroke="#3C83F6" stroke-width="1.33333" stroke-linecap="round" stroke-linejoin="round"/>
<path d="M4.33333 6.66667C4.51743 6.66667 4.66667 6.51743 4.66667 6.33333C4.66667 6.14924 4.51743 6 4.33333 6C4.14924 6 4 6.14924 4 6.33333C4 6.51743 4.14924 6.66667 4.33333 6.66667Z" fill="#3C83F6" stroke="#3C83F6" stroke-width="1.33333" stroke-linecap="round" stroke-linejoin="round"/>
</svg>
