<svg width="32" height="32" viewBox="0 0 32 32" fill="none" xmlns="http://www.w3.org/2000/svg">
<rect width="32" height="32" rx="8" fill="#2463EB"/>
<path d="M15.75 21C14.4167 20.9306 13.2917 20.4167 12.375 19.4583C11.4584 18.5 11 17.3472 11 16C11 14.6111 11.4861 13.4306 12.4584 12.4583C13.4306 11.4861 14.6111 11 16 11C17.3472 11 18.5 11.4583 19.4584 12.375C20.4167 13.2917 20.9306 14.4167 21 15.75L19.25 15.2292C19.0695 14.4792 18.6806 13.8646 18.0834 13.3854C17.4861 12.9062 16.7917 12.6667 16 12.6667C15.0834 12.6667 14.2986 12.9931 13.6459 13.6458C12.9931 14.2986 12.6667 15.0833 12.6667 16C12.6667 16.7917 12.9063 17.4861 13.3854 18.0833C13.8646 18.6806 14.4792 19.0694 15.2292 19.25L15.75 21ZM16.75 24.2917C16.625 24.3194 16.5 24.3333 16.375 24.3333C16.25 24.3333 16.125 24.3333 16 24.3333C14.8472 24.3333 13.7639 24.1146 12.75 23.6771C11.7361 23.2396 10.8542 22.6458 10.1042 21.8958C9.35419 21.1458 8.76044 20.2639 8.32294 19.25C7.88544 18.2361 7.66669 17.1528 7.66669 16C7.66669 14.8472 7.88544 13.7639 8.32294 12.75C8.76044 11.7361 9.35419 10.8542 10.1042 10.1042C10.8542 9.35417 11.7361 8.76042 12.75 8.32292C13.7639 7.88542 14.8472 7.66667 16 7.66667C17.1528 7.66667 18.2361 7.88542 19.25 8.32292C20.2639 8.76042 21.1459 9.35417 21.8959 10.1042C22.6459 10.8542 23.2396 11.7361 23.6771 12.75C24.1146 13.7639 24.3334 14.8472 24.3334 16C24.3334 16.125 24.3334 16.25 24.3334 16.375C24.3334 16.5 24.3195 16.625 24.2917 16.75L22.6667 16.25V16C22.6667 14.1389 22.0209 12.5625 20.7292 11.2708C19.4375 9.97917 17.8611 9.33333 16 9.33333C14.1389 9.33333 12.5625 9.97917 11.2709 11.2708C9.97919 12.5625 9.33335 14.1389 9.33335 16C9.33335 17.8611 9.97919 19.4375 11.2709 20.7292C12.5625 22.0208 14.1389 22.6667 16 22.6667C16.0417 22.6667 16.0834 22.6667 16.125 22.6667C16.1667 22.6667 16.2084 22.6667 16.25 22.6667L16.75 24.2917ZM23.1042 24.75L19.5417 21.1875L18.5 24.3333L16 16L24.3334 18.5L21.1875 19.5417L24.75 23.1042L23.1042 24.75Z" fill="white"/>
</svg>
